<?xml version="1.0" encoding="UTF-8" standalone="no"?><!DOCTYPE svg PUBLIC "-//W3C//DTD SVG 1.1//EN" "http://www.w3.org/Graphics/SVG/1.1/DTD/svg11.dtd"><svg width="100%" height="100%" viewBox="0 0 100 25" version="1.1" xmlns="http://www.w3.org/2000/svg" xmlns:xlink="http://www.w3.org/1999/xlink" xml:space="preserve" xmlns:serif="http://www.serif.com/" style="fill-rule:evenodd;clip-rule:evenodd;stroke-linejoin:round;stroke-miterlimit:1.41421;"><g><path d="M0,0.687l7.301,0l0,17.808l11.394,0l0,5.818l-18.695,0l0,-23.626Z" style="fill:#030000;fill-rule:nonzero;"/><path d="M20.532,12.516c0,-3.857 1.074,-6.86 3.223,-9.009c2.149,-2.149 5.141,-3.223 8.977,-3.223c3.932,0 6.962,1.056 9.089,3.167c2.127,2.111 3.191,5.068 3.191,8.872c0,2.761 -0.465,5.025 -1.394,6.793c-0.929,1.767 -2.272,3.142 -4.029,4.125c-1.757,0.983 -3.946,1.475 -6.567,1.475c-2.665,0 -4.87,-0.424 -6.616,-1.273c-1.746,-0.849 -3.161,-2.192 -4.246,-4.029c-1.086,-1.837 -1.628,-4.137 -1.628,-6.898Zm7.3,0.032c0,2.386 0.444,4.099 1.33,5.141c0.886,1.043 2.092,1.564 3.618,1.564c1.569,0 2.783,-0.511 3.642,-1.531c0.86,-1.021 1.29,-2.853 1.29,-5.496c0,-2.224 -0.449,-3.849 -1.346,-4.875c-0.897,-1.026 -2.114,-1.539 -3.65,-1.539c-1.472,0 -2.654,0.521 -3.546,1.563c-0.892,1.042 -1.338,2.767 -1.338,5.173Z" style="fill:#030000;fill-rule:nonzero;"/><path d="M60.822,15.755l0,-4.915l11.281,0l0,10.073c-2.159,1.472 -4.069,2.473 -5.729,3.005c-1.66,0.532 -3.629,0.798 -5.907,0.798c-2.804,0 -5.09,-0.478 -6.857,-1.434c-1.767,-0.957 -3.137,-2.38 -4.11,-4.271c-0.972,-1.891 -1.458,-4.061 -1.458,-6.511c0,-2.579 0.532,-4.821 1.595,-6.728c1.064,-1.908 2.622,-3.355 4.674,-4.344c1.601,-0.763 3.755,-1.144 6.463,-1.144c2.61,0 4.563,0.236 5.858,0.709c1.294,0.473 2.369,1.206 3.223,2.2c0.854,0.994 1.496,2.254 1.926,3.779l-7.043,1.257c-0.29,-0.892 -0.782,-1.574 -1.475,-2.046c-0.692,-0.473 -1.576,-0.71 -2.651,-0.71c-1.6,0 -2.876,0.556 -3.827,1.668c-0.951,1.112 -1.426,2.872 -1.426,5.278c0,2.557 0.48,4.384 1.442,5.48c0.962,1.096 2.302,1.644 4.021,1.644c0.816,0 1.595,-0.118 2.337,-0.355c0.741,-0.236 1.59,-0.639 2.546,-1.209l0,-2.224l-4.883,0Z" style="fill:#030000;fill-rule:nonzero;"/><path d="M75.52,12.516c0,-3.857 1.074,-6.86 3.223,-9.009c2.149,-2.149 5.141,-3.223 8.977,-3.223c3.932,0 6.962,1.056 9.089,3.167c2.127,2.111 3.191,5.068 3.191,8.872c0,2.761 -0.465,5.025 -1.394,6.793c-0.929,1.767 -2.272,3.142 -4.029,4.125c-1.757,0.983 -3.946,1.475 -6.567,1.475c-2.665,0 -4.87,-0.424 -6.616,-1.273c-1.746,-0.849 -3.161,-2.192 -4.247,-4.029c-1.085,-1.837 -1.627,-4.137 -1.627,-6.898Zm7.3,0.032c0,2.386 0.443,4.099 1.33,5.141c0.886,1.043 2.092,1.564 3.618,1.564c1.569,0 2.783,-0.511 3.642,-1.531c0.86,-1.021 1.289,-2.853 1.289,-5.496c0,-2.224 -0.448,-3.849 -1.345,-4.875c-0.897,-1.026 -2.114,-1.539 -3.651,-1.539c-1.471,0 -2.653,0.521 -3.545,1.563c-0.892,1.042 -1.338,2.767 -1.338,5.173Z" style="fill:#030000;fill-rule:nonzero;"/></g></svg>
